<svg width="14" height="14" viewBox="0 0 14 14" fill="none" xmlns="http://www.w3.org/2000/svg">
<path d="M2.59124 1.5036C1.75013 1.5036 1.2002 2.05592 1.2002 2.78186C1.2002 3.49177 1.73375 4.05984 2.55897 4.05984H2.57493C3.43249 4.05984 3.96619 3.49177 3.96619 2.78186C3.95015 2.05592 3.43249 1.5036 2.59124 1.5036Z" fill="#545454"/>
<path d="M1.34521 5.06989H3.80414V12.4677H1.34521V5.06989Z" fill="#545454"/>
<path d="M9.84002 4.8963C8.51352 4.8963 7.62403 6.14278 7.62403 6.14278V5.06993H5.16504V12.4677H7.62389V8.3365C7.62389 8.11533 7.63993 7.89452 7.7049 7.73636C7.88265 7.29474 8.28718 6.83721 8.96649 6.83721C9.85626 6.83721 10.2121 7.51562 10.2121 8.51012V12.4677H12.6708V8.22595C12.6708 5.95368 11.4577 4.8963 9.84002 4.8963Z" fill="#545454"/>
</svg>
