<svg width="12" height="12" viewBox="0 0 12 12" fill="none" xmlns="http://www.w3.org/2000/svg">
<g clip-path="url(#clip0_2001_58)">
<path d="M8.97013 0.647034H3.61732C2.14543 0.647034 0.940918 1.85155 0.940918 3.32344V8.67651C0.940918 10.148 2.14543 11.3529 3.61732 11.3529H8.97013C10.442 11.3529 11.6465 10.148 11.6465 8.67651V3.32344C11.6465 1.85155 10.442 0.647034 8.97013 0.647034ZM10.7544 8.67651C10.7544 9.66009 9.95426 10.4607 8.97013 10.4607H3.61732C2.63361 10.4607 1.8331 9.66009 1.8331 8.67651V3.32344C1.8331 2.3396 2.63361 1.53921 3.61732 1.53921H8.97013C9.95426 1.53921 10.7544 2.3396 10.7544 3.32344V8.67651Z" fill="#545454"/>
<path d="M9.19107 3.76929C9.56061 3.76929 9.86018 3.46973 9.86018 3.10019C9.86018 2.73066 9.56061 2.43109 9.19107 2.43109C8.82154 2.43109 8.52197 2.73066 8.52197 3.10019C8.52197 3.46973 8.82154 3.76929 9.19107 3.76929Z" fill="#545454"/>
<path d="M6.29359 3.32343C4.81514 3.32343 3.61719 4.52151 3.61719 5.99983C3.61719 7.4776 4.81514 8.6765 6.29359 8.6765C7.77163 8.6765 8.97 7.4776 8.97 5.99983C8.97 4.52151 7.77163 3.32343 6.29359 3.32343ZM6.29359 7.78432C5.30826 7.78432 4.50937 6.98542 4.50937 5.99983C4.50937 5.01424 5.30826 4.2156 6.29359 4.2156C7.27892 4.2156 8.07782 5.01424 8.07782 5.99983C8.07782 6.98542 7.27892 7.78432 6.29359 7.78432Z" fill="#545454"/>
</g>
<defs>
<clipPath id="clip0_2001_58">
<rect width="10.7059" height="10.7059" fill="white" transform="translate(0.940918 0.647034)"/>
</clipPath>
</defs>
</svg>
